<svg width="44" height="44" viewBox="0 0 44 44" fill="none" xmlns="http://www.w3.org/2000/svg">
<path d="M22 0.5C33.8741 0.5 43.5 10.1259 43.5 22C43.5 33.8741 33.8741 43.5 22 43.5C10.1259 43.5 0.5 33.8741 0.5 22C0.5 10.1259 10.1259 0.5 22 0.5Z" fill="#F5F5F5"/>
<path d="M22 0.5C33.8741 0.5 43.5 10.1259 43.5 22C43.5 33.8741 33.8741 43.5 22 43.5C10.1259 43.5 0.5 33.8741 0.5 22C0.5 10.1259 10.1259 0.5 22 0.5Z" stroke="#D9D9D9" stroke-linecap="round"/>
<path d="M14.5 17H16.1667M16.1667 17H29.5M16.1667 17L16.1667 28.6667C16.1667 29.1087 16.3423 29.5326 16.6548 29.8452C16.9674 30.1577 17.3913 30.3333 17.8333 30.3333H26.1667C26.6087 30.3333 27.0326 30.1577 27.3452 29.8452C27.6577 29.5326 27.8333 29.1087 27.8333 28.6667V17M18.6667 17V15.3333C18.6667 14.8913 18.8423 14.4674 19.1548 14.1548C19.4674 13.8423 19.8913 13.6667 20.3333 13.6667H23.6667C24.1087 13.6667 24.5326 13.8423 24.8452 14.1548C25.1577 14.4674 25.3333 14.8913 25.3333 15.3333V17M20.3333 21.1667V26.1667M23.6667 21.1667V26.1667" stroke="#1E1E1E" stroke-width="2" stroke-linecap="round" stroke-linejoin="round"/>
</svg>
